<?xml version="1.0" encoding="UTF-8"?><svg id="Calque_2" xmlns="http://www.w3.org/2000/svg" viewBox="0 0 115.89 75.55"><defs><style>.cls-1{fill:#48ade2;}.cls-2{letter-spacing:-.03em;}.cls-3,.cls-4{font-size:11px;}.cls-5{fill:#009fe3;}.cls-6{letter-spacing:-.01em;}.cls-4,.cls-7{font-family:MyriadPro-Regular, 'Myriad Pro';}.cls-8{font-size:8.5px;}.cls-7{fill:#ededed;}.cls-9{fill:#1d1d1b;}</style></defs><g id="Calque_1-2"><path class="cls-1" d="M68.15,17.39s9.05-5.63,12.41-5.37c0,0,9.26,.38,9.66-1.26,0,0,2.54-1.96-6.64-4.35,0,0-18.37-18.83-44.75,8.07,0,0-12.67-1.95-16.82,5.58,0,0,11.29-3.72,10.65,4.52,0,0-6.15,19.24,5.19,38.73,0,0-15.02-58.29,35.78-53.29,0,0-30.49,9.62-27.84,34.31,0,0,5.39-16.62,14.12-21.2,0,0,5.18,5.18,.07,11.31,0,0,11.91-3.56,8.16-17.04Z"/><text class="cls-4" transform="translate(45.28 53.78) scale(.96 1)"><tspan class="cls-6" x="0" y="0">D</tspan><tspan class="cls-2" x="7.17" y="0">A</tspan><tspan x="13.6" y="0">UPHIN</tspan></text><path class="cls-5" d="M0,66.9s13.52-14.46,42.19,1.9c0,0,10.39,15.73,55.67-.84L0,66.9Z"/><text class="cls-7" transform="translate(40.37 65.21)"><tspan class="cls-3" x="0" y="0">D L SCHOOL</tspan><tspan class="cls-8" x="56.51" y="0"> </tspan></text><path class="cls-9" d="M87.38,34.12s-5.24-4.3-7.35-4.02c0,0-5.79,.49-5.92-.81,0,0-1.44-1.51,4.43-3.59,0,0,12.73-15.35,27.27,5.51,0,0,8.01-1.81,10.07,4.1,0,0-6.77-2.73-6.94,3.81,0,0,2.49,15.19-5.9,30.92,0,0,13.37-46.69-18.58-41.68,0,0,18.3,7.04,14.95,26.74,0,0-2.2-13.11-7.32-16.59,0,0-3.58,4.23-.83,9,0,0-7.16-2.59-3.9-13.39Z"/></g></svg>